<?xml version="1.0" standalone="no"?>
<!DOCTYPE svg PUBLIC "-//W3C//DTD SVG 20010904//EN"
 "http://www.w3.org/TR/2001/REC-SVG-20010904/DTD/svg10.dtd">
<svg version="1.0" xmlns="http://www.w3.org/2000/svg"
 width="256.000000pt" height="256.000000pt" viewBox="0 0 256.000000 256.000000"
 preserveAspectRatio="xMidYMid meet">
<metadata>
Created by potrace 1.11, written by Peter Selinger 2001-2013
</metadata>
<g transform="translate(0.000000,256.000000) scale(0.100000,-0.100000)"
fill="#000000" stroke="none">
<path d="M1160 2514 c-212 -45 -385 -215 -435 -425 -46 -196 9 -385 154 -529
182 -181 437 -220 666 -102 236 120 357 422 271 675 -34 102 -77 167 -159 244
-78 72 -161 115 -269 137 -92 19 -141 19 -228 0z m214 -318 c49 -20 112 -81
135 -130 25 -51 28 -150 7 -201 -52 -122 -184 -188 -308 -151 -138 40 -215
179 -175 317 33 110 127 179 244 179 35 0 79 -6 97 -14z"/>
<path d="M1210 1160 c-287 -37 -499 -277 -500 -565 0 -152 56 -282 171 -398
115 -116 239 -167 402 -167 273 0 506 200 553 476 64 366 -258 702 -626 654z"/>
</g>
</svg>
