<?xml version="1.0" encoding="utf-8"?>
<!-- Generator: Adobe Illustrator 25.0.0, SVG Export Plug-In . SVG Version: 6.00 Build 0)  -->
<svg version="1.1" id="Warstwa_1" xmlns="http://www.w3.org/2000/svg" xmlns:xlink="http://www.w3.org/1999/xlink" x="0px" y="0px"
	 viewBox="0 0 20 20" style="enable-background:new 0 0 20 20;" xml:space="preserve">
<g>
	<path d="M5.1,3.1C5.1,4.1,4.3,5,3,5C1.8,5,1,4.1,1,3.1C1,2,1.8,1.1,3.1,1.1C4.3,1.1,5.1,2,5.1,3.1z M1.1,18.9V6.5h3.8v12.4H1.1z"/>
	<path d="M7.3,10.4c0-1.5-0.1-2.8-0.1-3.9h3.3l0.2,1.7h0.1c0.5-0.8,1.7-2,3.8-2c2.5,0,4.4,1.7,4.4,5.3v7.3h-3.8V12
		c0-1.6-0.6-2.7-1.9-2.7c-1.1,0-1.7,0.7-2,1.4c-0.1,0.3-0.1,0.6-0.1,1v7.1H7.3V10.4z"/>
</g>
</svg>
