<?xml version="1.0" encoding="utf-8"?>
<!-- Generator: Adobe Illustrator 25.0.0, SVG Export Plug-In . SVG Version: 6.00 Build 0)  -->
<svg version="1.1" id="Warstwa_1" xmlns="http://www.w3.org/2000/svg" xmlns:xlink="http://www.w3.org/1999/xlink" x="0px" y="0px"
	 viewBox="0 0 1374.6 208.6" style="enable-background:new 0 0 1374.6 208.6;" xml:space="preserve">
<style type="text/css">
	.st0{fill:none;stroke:#FFFFFF;stroke-miterlimit:10;}
</style>
<g>
	<path class="st0" d="M7.6,136c0-8.4,1.7-16.2,5.1-23.4c3.4-7.3,8.1-13.6,14.1-18.9c6-5.4,13.2-9.6,21.5-12.7
		c8.3-3.1,17.3-4.6,27.2-4.6c9.7,0,18.7,1.5,26.9,4.5c8.3,3,15.5,7.2,21.6,12.5c6.1,5.4,10.8,11.7,14.2,19.1
		c3.4,7.4,5.1,15.6,5.1,24.5c0,8.9-1.7,17.1-5.2,24.5c-3.4,7.4-8.2,13.8-14.2,19.1c-6,5.4-13.2,9.5-21.7,12.4
		c-8.4,2.9-17.6,4.4-27.4,4.4c-9.7,0-18.6-1.5-26.8-4.4c-8.2-2.9-15.3-7.1-21.2-12.5c-5.9-5.4-10.6-11.9-14-19.5
		C9.3,153.7,7.6,145.3,7.6,136z M49.7,136.5c0,3.8,0.7,7.3,2.1,10.5c1.4,3.2,3.2,5.9,5.5,8.2c2.3,2.3,5,4.2,8.1,5.5
		c3.2,1.3,6.5,2,10,2s6.9-0.7,10-2c3.2-1.3,5.9-3.2,8.1-5.5c2.3-2.3,4.1-5.1,5.5-8.2c1.4-3.2,2.1-6.6,2.1-10.2c0-3.5-0.7-6.9-2.1-10
		c-1.4-3.2-3.2-5.9-5.5-8.2c-2.3-2.3-5-4.2-8.1-5.5c-3.2-1.3-6.5-2-10-2s-6.9,0.7-10,2c-3.2,1.3-5.9,3.2-8.1,5.5
		c-2.3,2.3-4.1,5.1-5.5,8.1C50.3,129.6,49.7,132.9,49.7,136.5z"/>
	<path class="st0" d="M168.7,80.6h39.8v18.5c4.3-6.7,9.5-11.9,15.6-15.5c6.2-3.6,13.3-5.4,21.6-5.4c1,0,2.2,0,3.4,0
		c1.2,0,2.7,0.1,4.3,0.4v38.1c-5.3-2.6-11-4-17.2-4c-9.2,0-16.2,2.8-20.8,8.2c-4.6,5.5-6.9,13.5-6.9,24.1v48.4h-39.8V80.6z"/>
	<path class="st0" d="M313.6,10.8v110.4l41.8-40.7H410l-56.5,52.1l59.8,60.7h-55.9l-43.8-46v46h-39.8V10.8H313.6z"/>
	<path class="st0" d="M510.3,80.6h40v112.9h-40v-12.5c-8.5,10.7-20,16.1-34.5,16.1c-8.2,0-15.8-1.5-22.7-4.5
		c-6.9-3-12.9-7.2-18-12.6c-5.1-5.4-9.1-11.8-12-19.1c-2.9-7.3-4.3-15.3-4.3-24c0-8.1,1.4-15.7,4.2-23c2.8-7.3,6.7-13.6,11.7-19
		c5-5.4,10.9-9.7,17.8-12.9c6.9-3.2,14.5-4.7,22.9-4.7c14.1,0,25.7,4.9,35,14.7V80.6z M460.2,136.7c0,3.7,0.7,7.1,2,10.2
		c1.3,3.2,3.1,5.9,5.4,8.2c2.3,2.3,5,4.2,8.1,5.5c3.2,1.3,6.6,2,10.2,2c3.5,0,6.9-0.7,10-2c3.2-1.3,5.9-3.2,8.1-5.5
		c2.3-2.3,4.1-5.1,5.5-8.1c1.4-3.1,2.1-6.4,2.1-9.9c0-3.5-0.7-6.9-2.1-10c-1.4-3.2-3.2-5.9-5.5-8.2c-2.3-2.3-5-4.2-8.1-5.5
		c-3.2-1.3-6.5-2-10-2c-3.7,0-7.1,0.7-10.2,2c-3.2,1.3-5.9,3.2-8.1,5.5c-2.3,2.3-4.1,5-5.4,8C460.8,129.9,460.2,133.2,460.2,136.7z"
		/>
	<path class="st0" d="M732.3,109.6c-7.3-3.8-14.5-5.7-21.6-5.7c-3.7,0-6.6,0.7-8.9,2.2c-2.3,1.5-3.4,3.4-3.4,5.9
		c0,1.3,0.2,2.4,0.5,3.2c0.4,0.8,1.2,1.6,2.4,2.3c1.2,0.7,3.1,1.4,5.5,2c2.4,0.6,5.6,1.3,9.6,2.2c11,2.2,19.2,6.1,24.6,11.8
		c5.4,5.6,8.1,12.9,8.1,21.7c0,6.6-1.3,12.5-4,17.8c-2.6,5.3-6.3,9.7-11,13.3c-4.7,3.6-10.3,6.4-16.9,8.4c-6.6,2-13.9,3-21.8,3
		c-15.3,0-30.3-4.3-45.1-13l14.5-28.2c11.1,7.6,21.7,11.4,31.7,11.4c3.7,0,6.7-0.8,9-2.4c2.3-1.6,3.5-3.7,3.5-6.2
		c0-1.5-0.2-2.7-0.5-3.6c-0.4-1-1.1-1.8-2.3-2.6c-1.2-0.8-2.9-1.5-5.2-2.2c-2.3-0.7-5.2-1.4-8.9-2.1c-12.3-2.5-20.9-6.2-25.9-11.1
		c-4.9-4.9-7.4-11.7-7.4-20.4c0-6.3,1.2-12,3.5-17c2.3-5.1,5.7-9.3,10.1-12.9c4.4-3.5,9.7-6.2,16-8.1c6.2-1.9,13.2-2.9,20.8-2.9
		c12.5,0,24.6,2.4,36.3,7.3L732.3,109.6z"/>
	<path class="st0" d="M819.6,113.8v79.6h-39.8v-79.6h-13.2V80.6h13.2V46.7h39.8v33.9h22.7v33.2H819.6z"/>
	<path class="st0" d="M899.7,80.6v63.6c0,13.9,6.7,20.9,20.2,20.9c13.5,0,20.2-7,20.2-20.9V80.6H980v71.3c0,15.3-5,26.7-15.1,34.3
		c-10,7.6-25,11.4-45,11.4c-19.9,0-34.9-3.8-45-11.4c-10-7.6-15.1-19.1-15.1-34.3V80.6H899.7z"/>
	<path class="st0" d="M1096.8,10.8h40v182.6h-40v-12.5c-8.5,10.7-20,16.1-34.5,16.1c-8.2,0-15.8-1.5-22.7-4.6
		c-6.9-3.1-12.9-7.3-18-12.8c-5.1-5.4-9.1-11.8-12-19.1c-2.9-7.3-4.3-15.3-4.3-23.8c0-8.1,1.4-15.7,4.1-23c2.7-7.3,6.6-13.6,11.5-19
		c5-5.4,11-9.7,17.9-12.9c7-3.2,14.6-4.7,23-4.7c14.1,0,25.7,4.9,35,14.7V10.8z M1046.7,136.7c0,3.7,0.7,7.1,2,10.2
		c1.3,3.2,3.1,5.9,5.4,8.2c2.3,2.3,5,4.2,8.1,5.5c3.2,1.3,6.6,2,10.2,2c3.5,0,6.9-0.7,10-2c3.2-1.3,5.9-3.2,8.1-5.5
		c2.3-2.3,4.1-5.1,5.5-8.1c1.4-3.1,2.1-6.4,2.1-9.9c0-3.5-0.7-6.9-2.1-10c-1.4-3.2-3.2-5.9-5.5-8.2c-2.3-2.3-5-4.2-8.1-5.5
		c-3.2-1.3-6.5-2-10-2c-3.5,0-6.9,0.7-10,2c-3.2,1.3-5.9,3.2-8.1,5.5c-2.3,2.3-4.1,5-5.5,8C1047.4,129.9,1046.7,133.2,1046.7,136.7z
		"/>
	<path class="st0" d="M1163.9,37.2c0-3.1,0.6-6,1.8-8.7c1.2-2.7,2.8-5.1,4.8-7.2c2.1-2.1,4.4-3.7,7.2-4.8c2.7-1.2,5.6-1.8,8.7-1.8
		s6,0.6,8.7,1.8c2.7,1.2,5.1,2.8,7.1,4.8c2.1,2.1,3.7,4.4,4.8,7.2c1.2,2.7,1.8,5.6,1.8,8.7c0,3.1-0.6,6-1.8,8.7
		c-1.2,2.7-2.8,5.1-4.8,7.2c-2.1,2.1-4.4,3.7-7.1,4.8c-2.7,1.2-5.6,1.8-8.7,1.8s-6-0.6-8.7-1.8c-2.7-1.2-5.1-2.8-7.2-4.8
		c-2.1-2.1-3.7-4.4-4.8-7.2C1164.5,43.2,1163.9,40.3,1163.9,37.2z M1206.4,80.6v112.9h-39.8V80.6H1206.4z"/>
	<path class="st0" d="M1231.9,136c0-8.4,1.7-16.2,5.1-23.4c3.4-7.3,8.1-13.6,14.1-18.9c6-5.4,13.2-9.6,21.5-12.7
		c8.3-3.1,17.3-4.6,27.2-4.6c9.7,0,18.7,1.5,27,4.5c8.3,3,15.5,7.2,21.6,12.5c6.1,5.4,10.8,11.7,14.2,19.1
		c3.4,7.4,5.1,15.6,5.1,24.5c0,8.9-1.7,17.1-5.2,24.5c-3.4,7.4-8.2,13.8-14.2,19.1c-6,5.4-13.2,9.5-21.7,12.4
		c-8.4,2.9-17.6,4.4-27.4,4.4c-9.7,0-18.6-1.5-26.8-4.4c-8.2-2.9-15.3-7.1-21.2-12.5c-5.9-5.4-10.6-11.9-14-19.5
		C1233.6,153.7,1231.9,145.3,1231.9,136z M1273.9,136.5c0,3.8,0.7,7.3,2.1,10.5c1.4,3.2,3.2,5.9,5.5,8.2c2.3,2.3,5,4.2,8.1,5.5
		c3.2,1.3,6.5,2,10,2c3.5,0,6.9-0.7,10-2c3.2-1.3,5.9-3.2,8.1-5.5c2.3-2.3,4.1-5.1,5.5-8.2c1.4-3.2,2.1-6.6,2.1-10.2
		c0-3.5-0.7-6.9-2.1-10c-1.4-3.2-3.2-5.9-5.5-8.2c-2.3-2.3-5-4.2-8.1-5.5c-3.2-1.3-6.5-2-10-2c-3.5,0-6.9,0.7-10,2
		c-3.2,1.3-5.9,3.2-8.1,5.5c-2.3,2.3-4.1,5.1-5.5,8.1C1274.6,129.6,1273.9,132.9,1273.9,136.5z"/>
</g>
</svg>
