<svg version="1.1" xmlns="http://www.w3.org/2000/svg" width="24" height="6" xmlns:xlink="http://www.w3.org/1999/xlink" x="0px" y="0px"
	 viewBox="0 0 24 6" style="enable-background:new 0 0 24 6;" xml:space="preserve">
<style type="text/css">.st0{fill:#fff;}</style>
<path class="st0" d="M3.6,1.4C3.9,1.8,4,2.3,4,3c0,0.7-0.1,1.2-0.4,1.6C3.4,5,2.9,5.2,2.5,5.2C2.1,5.2,1.6,5,1.4,4.6
	C1.1,4.2,1,3.7,1,3c0-0.7,0.1-1.2,0.4-1.6C1.6,1,2.1,0.8,2.5,0.8C2.9,0.8,3.4,1,3.6,1.4z M2.1,1.9C1.9,2.1,1.9,2.5,1.9,3
	c0,0.9,0.2,1.4,0.6,1.4c0.4,0,0.6-0.5,0.6-1.4c0-0.6-0.1-1-0.2-1.2C2.8,1.6,2.6,1.5,2.5,1.5C2.3,1.5,2.2,1.7,2.1,1.9z"/>
<path class="st0" d="M8.8,0.8c0.5,0,0.7,0.1,0.9,0.2c0.3,0.2,0.5,0.6,0.5,1.1c0,0.5,0,0.8-0.4,1.1l0.6,2H9.5L8.9,3.3H8.7v1.8H7.8
	V0.8H8.8z M8.7,2.7c0.1,0,0.1,0,0.1,0c0.3,0,0.6-0.2,0.6-0.6c0-0.3-0.1-0.5-0.3-0.6c-0.1,0-0.1,0-0.4,0V2.7z"/>
<path class="st0" d="M15.1,0.8v1.9l0.7-1.9h0.9l-0.8,2l0.9,2.3h-0.9L15.1,3v2.2h-0.9V0.8H15.1z"/>
<path class="st0" d="M22,0.8l1,4.4h-0.9L22,4.4h-0.9L21,5.2h-0.9l1-4.4H22z M21.7,3.1c-0.1-0.5-0.1-0.7-0.2-1.1
	c0,0.4-0.1,0.9-0.2,1.2l-0.1,0.6h0.6L21.7,3.1z"/>
</svg>
