<?xml version="1.0" encoding="utf-8"?>
<!-- Generator: Adobe Illustrator 25.0.0, SVG Export Plug-In . SVG Version: 6.00 Build 0)  -->
<svg version="1.1" id="Warstwa_1" xmlns="http://www.w3.org/2000/svg" xmlns:xlink="http://www.w3.org/1999/xlink" x="0px" y="0px"
	 viewBox="0 0 20 20" style="enable-background:new 0 0 20 20;" xml:space="preserve">
<style type="text/css">
	.st0{fill-rule:evenodd;clip-rule:evenodd;}
</style>
<g>
	<path class="st0" d="M18.9,5.1c0.1-0.8,0.1-1.5-0.3-2.1c-0.6-0.8-2-0.9-3-0.7c-0.8,0.1-3.4,1.3-4.3,4c1.6-0.1,2.4,0.1,2.2,1.8
		c-0.1,0.7-0.4,1.5-0.8,2.3c-0.5,0.9-1.4,2.6-2.5,1.4c-1-1.1-1-3.3-1.2-4.7C8.9,6.3,8.8,5.3,8.5,4.5C8.3,3.8,7.8,3,7.1,2.8
		c-0.7-0.2-1.5,0.1-2,0.4C3.6,4.1,2.4,5.4,1,6.5v0.1c0.3,0.3,0.3,0.7,0.7,0.7c0.9,0.1,1.8-0.9,2.4,0.2c0.4,0.6,0.5,1.3,0.7,2
		c0.3,0.9,0.6,1.9,0.8,3c0.4,1.8,1,4.5,2.5,5.1c0.8,0.3,2-0.1,2.6-0.5c1.6-1,2.9-2.4,4-3.8C17.3,10,18.7,6.2,18.9,5.1z"/>
</g>
</svg>
